<!-- Generated by IcoMoon.io -->
<svg version="1.1" xmlns="http://www.w3.org/2000/svg" width="237" height="32" viewBox="0 0 237 32">
<path fill="#2887d9" d="M10.429 1.857v28.679h-7.581v-28.679h7.581zM20.044 28.447l1.479 2.089h-11.206v-2.089h9.726zM18.824 15.377v2.049h-8.506v-2.049h8.506zM20.784 1.857v2.090h-10.466v-2.090h10.466zM23.040 21.031l-1.405 9.505h-7.988l1.331-2.089c1.183 0 2.281-0.287 3.291-0.86 1.036-0.601 1.935-1.448 2.7-2.54 0.764-1.12 1.331-2.458 1.701-4.015h0.37zM18.824 17.344v4.753h-0.37v-0.205c0-1.284-0.382-2.335-1.147-3.155-0.74-0.847-1.689-1.284-2.848-1.311v-0.082h4.364zM18.824 10.707v4.753h-4.364v-0.082c1.159-0.027 2.12-0.464 2.885-1.311s1.134-1.912 1.11-3.196v-0.164h0.37zM20.784 3.824v5.736h-0.37v-0.328c0-1.639-0.419-2.923-1.257-3.851-0.838-0.956-2.009-1.448-3.513-1.475v-0.082h5.141zM20.784 1.12v1.188l-4.512-0.451c0.542 0 1.109-0.041 1.701-0.123 0.616-0.082 1.183-0.178 1.701-0.287s0.888-0.218 1.11-0.328zM2.959 27.545v2.991h-2.959v-0.41c0 0 0.074 0 0.222 0 0.173 0 0.259 0 0.259 0 0.641 0 1.183-0.246 1.627-0.737 0.468-0.519 0.715-1.134 0.74-1.844h0.111zM2.959 4.848h-0.111c-0.025-0.71-0.271-1.311-0.74-1.803-0.444-0.519-0.986-0.778-1.627-0.778 0 0-0.086 0-0.259 0-0.148 0-0.222 0-0.222 0v-0.41h2.959v2.991z"></path>
<path fill="#2887d9" d="M43.121 31.028l-11.317-24.869h8.469l5.991 14.831-3.144 10.038zM43.121 31.028l-0.074-6.023 7.729-18.928h2.959l-8.395 19.461c-0.099 0.246-0.247 0.615-0.444 1.106-0.197 0.464-0.407 0.983-0.629 1.557-0.197 0.546-0.382 1.079-0.555 1.598-0.148 0.492-0.247 0.901-0.296 1.229h-0.296zM49.778 8.494c0.271-0.71 0.234-1.243-0.111-1.598-0.321-0.382-0.69-0.574-1.11-0.574h-0.296v-0.369h7.581v0.41c0 0-0.049 0-0.148 0s-0.148 0-0.148 0c-0.468 0-0.974 0.164-1.516 0.492-0.542 0.3-0.986 0.847-1.331 1.639h-2.922zM41.198 8.494h-8.321c-0.345-0.792-0.789-1.338-1.331-1.639-0.518-0.328-1.023-0.492-1.516-0.492 0 0-0.037 0-0.111 0-0.099 0-0.148 0-0.148 0v-0.41h12.981v0.369h-0.296c-0.395 0-0.764 0.191-1.11 0.574-0.345 0.355-0.394 0.888-0.148 1.598z"></path>
<path fill="#2887d9" d="M72.703 5.954v24.582h-7.248v-24.582h7.248zM65.565 27.996v2.54h-2.404v-0.41c0 0 0.062 0 0.185 0s0.197 0 0.222 0c0.493 0 0.925-0.205 1.294-0.615 0.394-0.41 0.592-0.915 0.592-1.516h0.111zM72.629 27.996h0.074c0.025 0.601 0.222 1.106 0.592 1.516s0.814 0.615 1.331 0.615c0 0 0.062 0 0.185 0s0.197 0 0.222 0v0.41h-2.404v-2.54zM72.629 8.494v-2.54h2.367v0.41c0 0-0.062 0-0.185 0-0.099 0-0.16 0-0.185 0-0.518 0-0.962 0.205-1.331 0.615-0.37 0.382-0.567 0.888-0.592 1.516h-0.074zM65.565 8.494h-0.111c0-0.628-0.197-1.133-0.592-1.516-0.37-0.41-0.801-0.615-1.294-0.615-0.025 0-0.099 0-0.222 0s-0.185 0-0.185 0v-0.41h2.404v2.54z"></path>
<path fill="#2887d9" d="M96.501 5.954c2.786 0 5.165 0.492 7.138 1.475 1.972 0.956 3.476 2.349 4.512 4.179 1.060 1.83 1.59 4.042 1.59 6.637s-0.53 4.807-1.59 6.637c-1.036 1.83-2.539 3.237-4.512 4.22-1.972 0.956-4.352 1.434-7.138 1.434h-8.432l-0.074-1.885c1.997 0 3.55 0 4.66 0 1.134 0 1.935 0 2.404 0s0.703 0 0.703 0c1.972 0 3.526-0.915 4.66-2.745 1.159-1.83 1.738-4.384 1.738-7.661s-0.567-5.832-1.701-7.662c-1.134-1.857-2.7-2.786-4.697-2.786 0 0-0.247 0-0.74 0-0.468 0-1.294 0-2.478 0s-2.811 0-4.882 0v-1.844h8.839zM93.691 5.954v24.582h-7.249v-24.582h7.249zM86.553 27.914v2.622h-2.626v-0.41c0 0 0.062 0 0.185 0 0.148 0 0.234 0 0.259 0 0.567 0 1.048-0.218 1.442-0.655 0.419-0.437 0.629-0.956 0.629-1.557h0.111zM86.516 8.494h-0.074c-0.025-0.628-0.247-1.133-0.666-1.516-0.395-0.41-0.875-0.615-1.442-0.615 0 0-0.074 0-0.222 0-0.123 0-0.197 0-0.222 0v-0.41h2.626v2.54z"></path>
<path fill="#2887d9" d="M128.397 5.954v24.582h-7.249v-24.582h7.249zM136.2 28.652l1.479 1.885h-9.357v-1.885h7.877zM135.275 17.467v1.926h-6.953v-1.926h6.953zM136.903 5.954v1.885h-8.58v-1.885h8.58zM138.789 21.933l-1.036 8.604h-6.879l1.073-1.885c0.962 0 1.874-0.259 2.737-0.778 0.887-0.546 1.664-1.311 2.33-2.294 0.666-1.011 1.146-2.226 1.442-3.646h0.333zM135.275 19.31v4.425h-0.37v-0.164c0-1.202-0.345-2.185-1.035-2.95-0.666-0.792-1.541-1.202-2.626-1.229v-0.082h4.031zM135.275 13.165v4.384h-4.031v-0.082c1.085-0.027 1.96-0.437 2.626-1.229 0.69-0.792 1.035-1.789 1.035-2.991v-0.082h0.37zM136.903 7.757v5.326h-0.37v-0.205c0-1.584-0.37-2.813-1.109-3.687s-1.812-1.325-3.218-1.352v-0.082h4.697zM136.903 5.34v0.983l-3.661-0.369c0.666 0 1.368-0.068 2.108-0.205 0.764-0.164 1.282-0.3 1.553-0.41zM121.259 27.996l-0.037 2.54h-2.404v-0.41c0 0 0.062 0 0.185 0s0.197 0 0.222 0c0.518 0 0.962-0.205 1.331-0.615 0.394-0.41 0.592-0.915 0.592-1.516h0.111zM121.259 8.535h-0.111c0-0.628-0.197-1.147-0.592-1.557-0.37-0.41-0.814-0.615-1.331-0.615-0.025 0-0.099 0-0.222 0s-0.185 0-0.185 0v-0.41h2.404l0.037 2.581z"></path>
<path fill="#2887d9" d="M150.038 5.421l22.485 20.977 0.408 4.63-22.485-20.895-0.408-4.712zM150.261 28.078v2.458h-2.737v-0.41c0 0 0.099 0 0.295 0 0.198 0 0.296 0 0.296 0 0.568 0 1.048-0.191 1.443-0.573 0.394-0.382 0.591-0.874 0.591-1.475h0.111zM157.398 28.078c0.025 0.601 0.234 1.092 0.629 1.475 0.394 0.382 0.863 0.573 1.405 0.573 0 0 0.099 0 0.295 0 0.198 0 0.296 0 0.296 0v0.41h-2.699v-2.458h0.074zM150.038 5.421l7.36 8.645v16.47h-7.249v-20.772c0-1.393-0.074-2.458-0.223-3.196-0.147-0.765-0.221-1.147-0.221-1.147h0.333zM172.819 5.954v20.608c0 0.983 0.038 1.816 0.111 2.499 0.074 0.656 0.147 1.147 0.221 1.475 0.075 0.328 0.111 0.492 0.111 0.492h-0.333l-7.36-9.341-0.036-15.733h7.285zM172.746 8.412v-2.458h2.737v0.41c0 0-0.111 0-0.333 0-0.198 0-0.296 0-0.296 0-0.543 0-1.010 0.191-1.405 0.574s-0.604 0.874-0.629 1.475h-0.074zM165.535 8.412c0-0.601-0.198-1.093-0.593-1.475-0.369-0.382-0.838-0.574-1.405-0.574 0 0-0.11 0-0.333 0-0.198 0-0.296 0-0.296 0v-0.41h2.737v2.458h-0.11z"></path>
<path fill="#2887d9" d="M205.976 20.294l0.961 6.555c-0.37 0.738-0.913 1.42-1.628 2.049-0.714 0.628-1.651 1.147-2.81 1.557-1.134 0.382-2.552 0.574-4.253 0.574-2.909-0.027-5.423-0.533-7.544-1.516-2.095-0.983-3.711-2.417-4.845-4.302-1.134-1.912-1.702-4.247-1.702-7.006 0-2.677 0.555-4.957 1.664-6.842 1.11-1.912 2.712-3.373 4.808-4.384 2.12-1.011 4.659-1.516 7.617-1.516 1.775 0 3.353 0.15 4.735 0.451 1.38 0.3 2.49 0.642 3.328 1.024l-0.48 6.965h-0.259c-0.666-2.513-1.567-4.234-2.701-5.162-1.134-0.956-2.465-1.434-3.994-1.434-1.677 0-3.044 0.464-4.104 1.393-1.060 0.901-1.837 2.171-2.33 3.81-0.493 1.612-0.739 3.469-0.739 5.572 0 2.212 0.246 4.138 0.739 5.777 0.518 1.639 1.258 2.922 2.219 3.851 0.986 0.901 2.182 1.393 3.587 1.475 1.702 0 3.008-0.273 3.921-0.819 0.936-0.574 1.651-1.502 2.145-2.786 0.518-1.311 0.986-3.073 1.405-5.285h0.259z"></path>
<path fill="#2887d9" d="M226.13 5.954v24.582h-7.249v-24.582h7.249zM233.933 28.652l1.48 1.885h-9.357v-1.885h7.876zM233.009 17.467v1.926h-6.952v-1.926h6.952zM234.635 5.954v1.885h-8.579v-1.885h8.579zM236.522 21.933l-1.035 8.604h-6.879l1.073-1.885c0.961 0 1.873-0.259 2.735-0.778 0.888-0.546 1.665-1.311 2.33-2.294 0.666-1.011 1.146-2.226 1.443-3.646h0.333zM233.009 19.31v4.425h-0.37v-0.164c0-1.202-0.345-2.185-1.035-2.95-0.666-0.792-1.542-1.202-2.627-1.229v-0.082h4.032zM233.009 13.165v4.384h-4.032v-0.082c1.085-0.027 1.96-0.437 2.627-1.229 0.69-0.792 1.035-1.789 1.035-2.991v-0.082h0.37zM234.635 7.757v5.326h-0.369v-0.205c0-1.584-0.37-2.813-1.11-3.687-0.739-0.874-1.811-1.325-3.217-1.352v-0.082h4.696zM234.635 5.34v0.983l-3.661-0.369c0.665 0 1.368-0.068 2.108-0.205 0.764-0.164 1.281-0.3 1.553-0.41zM218.993 27.996l-0.038 2.54h-2.404v-0.41c0 0 0.063 0 0.185 0 0.124 0 0.198 0 0.223 0 0.518 0 0.961-0.205 1.331-0.615 0.394-0.41 0.591-0.915 0.591-1.516h0.111zM218.993 8.535h-0.111c0-0.628-0.198-1.147-0.591-1.557-0.37-0.41-0.814-0.615-1.331-0.615-0.025 0-0.099 0-0.223 0-0.122 0-0.185 0-0.185 0v-0.41h2.404l0.038 2.581z"></path>
</svg>
