<!-- Generated by IcoMoon.io -->
<svg version="1.1" xmlns="http://www.w3.org/2000/svg" width="53" height="32" viewBox="0 0 53 32">
<path fill="#b9cedf" d="M42.684-4.051l-6.606-6.606c-0.594-0.594-1.342-0.877-2.116-0.877s-1.523 0.284-2.116 0.877l-23.768 23.768c-1.161 1.161-1.161 3.071 0 4.232l2.787 2.787-10.658 10.658c-0.284 0.284-0.284 0.748 0 1.032 0.129 0.129 0.335 0.206 0.516 0.206s0.361-0.077 0.516-0.206l10.658-10.658 2.787 2.787c0.594 0.594 1.342 0.877 2.116 0.877s1.523-0.284 2.116-0.877l23.768-23.768c1.161-1.161 1.161-3.071 0-4.232zM41.652-0.851l-1.265 1.265-4.387-4.387-1.032 1.032 4.387 4.387-1.626 1.626-1.677-1.677-1.032 1.032 1.677 1.677-1.368 1.368-4.387-4.387-1.032 1.032 4.387 4.387-1.626 1.626-1.677-1.677-1.032 1.032 1.677 1.677-1.394 1.394-4.387-4.387-1.032 1.032 4.387 4.387-1.626 1.626-1.677-1.677-1.032 1.032 1.678 1.677-1.626 1.626-4.387-4.387-1.032 1.032 4.387 4.387-1.394 1.394-1.6-1.781-1.032 1.032 1.677 1.677-1.394 1.394-4.387-4.387-1.032 1.032 4.387 4.387-1.265 1.265c-0.284 0.284-0.671 0.465-1.084 0.465s-0.8-0.155-1.084-0.465l-6.606-6.606c-0.594-0.594-0.594-1.574 0-2.194l23.768-23.768c0.284-0.284 0.671-0.465 1.084-0.465s0.8 0.155 1.084 0.465l6.606 6.606c0.284 0.284 0.465 0.671 0.465 1.084 0.026 0.439-0.155 0.826-0.439 1.11z"></path>
</svg>
