<!-- Generated by IcoMoon.io -->
<svg version="1.1" xmlns="http://www.w3.org/2000/svg" width="28" height="32" viewBox="0 0 28 32">
<path fill="#b0c5d7" d="M16.87 1.682c-0.941-0.106-1.886-0.043-2.764 0.171-1.252 0.305-2.388 0.902-3.341 1.745-0.939 0.839-1.686 1.905-2.138 3.113-1.934-1.74-4.61-2.399-7.1-1.792-0.878 0.214-1.732 0.59-2.533 1.12-3.572 2.426-4.506 7.289-2.094 10.864 0.264 0.393 0.848 1.166 1.891 2.192 0.204 0.209 0.436 0.412 0.675 0.644 1.723 1.562 4.391 3.565 8.421 5.648l6.036 3.119 3.939-5.55c2.87-4.054 4.34-7.279 5.094-9.506 0.106-0.316 0.201-0.613 0.275-0.875 0.319-1.069 0.442-1.816 0.484-2.207 0.525-4.291-2.542-8.179-6.844-8.686zM17.232 22.499l-3.526 4.992-5.427-2.809c-3.138-1.614-5.776-3.365-7.849-5.177l11.27-2.747 0.086-5.404 4.486 10.648 0.013-9.457 2.314 4.926 0.413-3.059 3.084-0.736c-0.777 2.004-2.175 5.028-4.863 8.825zM22.945 10.28c-0.041 0.33-0.157 1.045-0.454 2.078-0.055 0.151-0.095 0.298-0.136 0.445l-4.091 0.982-0.121 0.944-2.668-5.693-0.014 9.076-4.44-10.522-0.126 8.555-11.198 2.729c-0.121-0.123-0.239-0.231-0.357-0.34-1.004-0.991-1.549-1.727-1.784-2.066-2.169-3.207-1.331-7.589 1.876-9.759 0.707-0.477 1.464-0.814 2.284-1.014 2.274-0.554 4.664 0.053 6.386 1.615l0.861 0.781 0.405-1.090c0.811-2.18 2.653-3.818 4.927-4.373 0.806-0.196 1.647-0.249 2.495-0.151 1.867 0.216 3.529 1.153 4.695 2.622s1.676 3.312 1.461 5.179z"></path>
</svg>
