<!-- Generated by IcoMoon.io -->
<svg version="1.1" xmlns="http://www.w3.org/2000/svg" width="109" height="32" viewBox="0 0 109 32">
<path fill="#d0e1f1" d="M63.624-1.631l-27.232 27.231c-8.345 8.345-21.773 8.345-30.118 0-4.141-4.141-6.212-9.6-6.212-15.059s2.071-10.918 6.212-15.059l27.231-27.231 30.118 30.118z"></path>
<path fill="#abc4d9" d="M33.506-31.749l-27.294 27.231c-4.141 4.141-6.212 9.6-6.212 15.059s2.071 10.918 6.212 15.059c4.141 4.141 9.6 6.212 15.059 6.212s10.918-2.071 15.059-6.212l27.231-27.231-30.055-30.118zM34.196 23.467c-3.451 3.451-8.031 5.333-12.863 5.333-4.894 0-9.475-1.882-12.863-5.333-3.451-3.451-5.333-8.031-5.333-12.863 0-4.894 1.882-9.475 5.333-12.863l25.098-25.098 25.788 25.788-25.161 25.035z"></path>
<path fill="#d0e1f1" d="M104.846 23.215l-26.918-26.918c7.529-5.020 17.82-4.204 24.471 2.447s7.467 16.941 2.447 24.471z"></path>
<path fill="#cef2f0" d="M104.847 23.215c0 0.063-0.063 0.063-0.063 0.125-0.69 1.004-1.443 1.945-2.384 2.886-0.878 0.878-1.882 1.694-2.886 2.384-0.063 0-0.063 0.063-0.126 0.063l-26.918-26.918c0-0.063 0.063-0.063 0.063-0.125 0.69-1.004 1.443-1.945 2.384-2.886 0.878-0.878 1.882-1.694 2.886-2.384 0.063 0 0.063-0.063 0.126-0.063l26.918 26.918z"></path>
<path fill="#abc4d9" d="M102.401-1.255c-3.765-3.765-8.784-5.71-13.741-5.71v3.075c4.392 0 8.471 1.694 11.545 4.769 5.522 5.522 6.4 14.243 2.008 20.706-0.565 0.878-1.255 1.694-2.008 2.384-0.753 0.753-1.569 1.38-2.447 2.008-2.698 1.82-5.835 2.824-9.161 2.824-4.392 0-8.471-1.694-11.545-4.769-5.522-5.522-6.4-14.243-2.008-20.706 0.565-0.878 1.255-1.694 2.008-2.384 0.753-0.753 1.569-1.38 2.447-2.008 2.698-1.82 5.835-2.824 9.161-2.824v-3.075c-3.765 0-7.592 1.129-10.855 3.325-1.004 0.69-1.945 1.443-2.886 2.384-0.878 0.878-1.694 1.882-2.384 2.886-5.082 7.529-4.329 17.882 2.384 24.596 3.765 3.765 8.784 5.71 13.741 5.71 3.765 0 7.592-1.129 10.855-3.325 1.004-0.69 1.945-1.443 2.886-2.384 0.878-0.878 1.694-1.882 2.384-2.886 5.082-7.592 4.329-17.945-2.384-24.596z"></path>
</svg>
