<!-- Generated by IcoMoon.io -->
<svg version="1.1" xmlns="http://www.w3.org/2000/svg" width="26" height="32" viewBox="0 0 26 32">
<path fill="#b0c5d7" d="M29.773 6.263c-0.826-0.533-1.735-0.92-2.652-1.142-1.308-0.318-2.643-0.325-3.924-0.033-1.266 0.296-2.459 0.882-3.445 1.729-0.986-2.428-3.169-4.256-5.769-4.888-0.917-0.223-1.887-0.292-2.88-0.202-4.457 0.456-7.599 4.281-7.026 8.541 0.061 0.468 0.245 1.418 0.735 2.805 0.091 0.279 0.213 0.565 0.328 0.88 0.873 2.174 2.42 5.176 5.196 8.884l4.159 5.553 6.258-3.022c4.565-2.211 7.441-4.35 9.183-5.949 0.246-0.227 0.474-0.443 0.664-0.638 0.796-0.788 1.26-1.384 1.482-1.708 2.494-3.514 1.457-8.354-2.309-10.809zM20.38 24.673l-5.613 2.726-3.737-4.998c-2.166-2.881-3.802-5.648-4.884-8.205l11.77 2.86 2.605-4.695-0.802 11.426 4.432-8.281-0.149 5.397 1.814-2.487 3.213 0.796c-1.66 1.393-4.374 3.389-8.65 5.46zM31.407 16.636c-0.193 0.27-0.634 0.842-1.394 1.608-0.121 0.106-0.228 0.216-0.334 0.326l-4.266-1.052-0.553 0.771 0.178-6.235-4.255 7.946 0.786-11.294-4.115 7.437-11.695-2.842c-0.056-0.164-0.115-0.315-0.174-0.465-0.471-1.337-0.635-2.237-0.695-2.644-0.52-3.824 2.308-7.272 6.306-7.674 0.881-0.088 1.742-0.029 2.599 0.179 2.375 0.577 4.315 2.226 5.187 4.4l0.436 1.087 0.887-0.766c1.773-1.531 4.253-2.106 6.628-1.529 0.842 0.205 1.649 0.552 2.392 1.034 1.636 1.062 2.745 2.659 3.143 4.492s0.012 3.685-1.062 5.221z"></path>
</svg>
