<!-- Generated by IcoMoon.io -->
<svg version="1.1" xmlns="http://www.w3.org/2000/svg" width="9" height="32" viewBox="0 0 9 32">
<path fill="#bbcfde" d="M28.684 21.86c1.214-1.214 1.889-2.834 1.889-4.569 0-1.716-0.675-3.354-1.889-4.569l-12.607-12.607-0.925 0.925 12.607 12.607c0.983 0.983 1.504 2.275 1.504 3.643s-0.54 2.66-1.504 3.643c-2.005 2.005-5.282 2.005-7.287 0l-9.272-9.272c-1.214-1.214-2.834-1.889-4.569-1.889s-3.354 0.675-4.569 1.889c-2.525 2.525-2.525 6.612 0 9.137l11.123 11.123 0.925-0.925-11.123-11.123c-2.005-2.005-2.005-5.282 0-7.287 0.964-0.964 2.275-1.504 3.643-1.504s2.66 0.54 3.643 1.504l9.272 9.272c2.525 2.506 6.612 2.506 9.137 0z"></path>
</svg>
