<!-- Generated by IcoMoon.io -->
<svg version="1.1" xmlns="http://www.w3.org/2000/svg" width="23" height="32" viewBox="0 0 23 32">
<path fill="#bbd0e0" d="M29.722 29.722c5.623-5.623-0.777-16.47-3.851-21.677-1.645-2.766-4.972-7.503-8.967-8.009-1.79-0.217-3.489 0.434-5.026 1.971l0.868 0.868c1.266-1.266 2.585-1.808 3.995-1.627 3.598 0.452 6.834 5.333 8.063 7.412 2.694 4.556 8.985 15.241 4.050 20.194-4.954 4.954-15.638-1.356-20.194-4.050-2.079-1.229-6.942-4.466-7.412-8.063-0.181-1.428 0.344-2.73 1.627-3.995l-0.868-0.868c-1.537 1.537-2.188 3.236-1.971 5.026 0.217 1.717 1.555 5.152 7.991 8.967 5.225 3.073 16.072 9.473 21.695 3.851z"></path>
</svg>
