<svg aria-hidden="true" style="position: absolute; width: 0; height: 0; overflow: hidden;" version="1.1" xmlns="http://www.w3.org/2000/svg" xmlns:xlink="http://www.w3.org/1999/xlink">
<defs>
<symbol id="icon-burger-menu" viewBox="0 0 32 32">
<path stroke-linejoin="miter" stroke-linecap="round" stroke-miterlimit="4" stroke-width="2.6667" d="M4 9.333h24.381M4 16.191h24.381M4 23.048h24.381"></path>
</symbol>
<symbol id="icon-search" viewBox="0 0 32 32">
<path stroke-linejoin="round" stroke-linecap="round" stroke-miterlimit="4" stroke-width="2" d="M29.333 29.333l-2.667-2.667M15.333 28c1.663 0 3.311-0.328 4.847-0.964s2.933-1.57 4.109-2.746c1.176-1.176 2.109-2.573 2.746-4.109s0.964-3.184 0.964-4.847-0.328-3.311-0.964-4.847c-0.637-1.537-1.57-2.933-2.746-4.109s-2.573-2.109-4.109-2.746-3.184-0.964-4.847-0.964c-3.359 0-6.581 1.335-8.957 3.71s-3.71 5.597-3.71 8.957c0 3.359 1.335 6.581 3.71 8.957s5.597 3.71 8.957 3.71v0z"></path>
</symbol>
<symbol id="icon-personality" viewBox="0 0 27 32">
<path fill="none" stroke="#2887d9" style="stroke: var(--color1, #2887d9)" stroke-linejoin="round" stroke-linecap="round" stroke-miterlimit="4" stroke-width="1.2632" d="M26.132 30.737c0-5.703-5.674-10.316-12.659-10.316s-12.659 4.613-12.659 10.316M13.473 16c1.954 0 3.828-0.776 5.21-2.158s2.158-3.256 2.158-5.21c0-1.954-0.776-3.828-2.158-5.21s-3.256-2.158-5.21-2.158-3.828 0.776-5.21 2.158c-1.382 1.382-2.158 3.256-2.158 5.21s0.776 3.828 2.158 5.21c1.382 1.382 3.256 2.158 5.21 2.158v0z"></path>
</symbol>
<symbol id="icon-modal-close" viewBox="0 0 32 32">
<path stroke-linejoin="round" stroke-linecap="round" stroke-miterlimit="4" stroke-width="2.1818" d="M11.884 20.116l8.233-8.233M20.116 20.116l-8.233-8.233M11.636 30.545h8.727c7.273 0 10.182-2.909 10.182-10.182v-8.727c0-7.273-2.909-10.182-10.182-10.182h-8.727c-7.273 0-10.182 2.909-10.182 10.182v8.727c0 7.273 2.909 10.182 10.182 10.182z"></path>
</symbol>
<symbol id="icon-global" viewBox="0 0 32 32">
<path stroke-linejoin="round" stroke-linecap="round" stroke-miterlimit="4" stroke-width="2" d="M16 29.333c7.364 0 13.333-5.969 13.333-13.333s-5.969-13.333-13.333-13.333c-7.364 0-13.333 5.969-13.333 13.333s5.969 13.333 13.333 13.333z"></path>
<path stroke-linejoin="round" stroke-linecap="round" stroke-miterlimit="4" stroke-width="2" d="M10.666 4h1.333c-2.6 7.789-2.6 16.211 0 24h-1.333M19.999 4c2.6 7.789 2.6 16.211 0 24"></path>
<path stroke-linejoin="round" stroke-linecap="round" stroke-miterlimit="4" stroke-width="2" d="M4 21.333v-1.333c7.789 2.6 16.211 2.6 24 0v1.333M4 11.999c7.789-2.6 16.211-2.6 24 0"></path>
</symbol>
</defs>
</svg>
